<?xml version="1.0" encoding="UTF-8" standalone="no"?>
<!-- Created with Inkscape (http://www.inkscape.org/) -->

<svg
   xmlns:dc="http://purl.org/dc/elements/1.1/"
   xmlns:cc="http://creativecommons.org/ns#"
   xmlns:rdf="http://www.w3.org/1999/02/22-rdf-syntax-ns#"
   xmlns:svg="http://www.w3.org/2000/svg"
   xmlns="http://www.w3.org/2000/svg"
   xmlns:sodipodi="http://sodipodi.sourceforge.net/DTD/sodipodi-0.dtd"
   xmlns:inkscape="http://www.inkscape.org/namespaces/inkscape"
   width="210mm"
   height="297mm"
   viewBox="0 0 744.09448819 1052.3622047"
   id="svg2"
   version="1.1"
   inkscape:version="0.91 r13725"
   sodipodi:docname="axopy.svg"
   inkscape:export-filename="/home/kenny/src/axopy/doc/source/_static/axopy.png"
   inkscape:export-xdpi="99.550278"
   inkscape:export-ydpi="99.550278">
  <defs
     id="defs4">
    <clipPath
       clipPathUnits="userSpaceOnUse"
       id="clipPath4796">
      <g
         id="g4798">
        <path
           style="display:inline;opacity:0.95999995;fill:none;fill-rule:evenodd;stroke:#d3d3d3;stroke-width:2;stroke-linecap:round;stroke-linejoin:round;stroke-miterlimit:4;stroke-dasharray:none;stroke-opacity:1"
           d="m 182.34752,775.64033 c 0,0 21.40966,-3.42556 31.97178,3.14006 10.5621,6.56565 15.84415,15.43588 22.40878,19.98236 6.43874,4.45931 15.51591,8.54953 16.69956,11.56123 1.68528,4.28808 5.28104,15.41498 4.56739,18.69779 0,0 -1.88312,0.95266 -1.27755,2.71887 0.60555,1.76621 1.76621,3.07824 4.28937,2.32129 3.93625,-1.18087 3.07824,-4.33983 1.56434,-5.34908 -1.16964,-0.77977 -1.8419,-1.51391 -1.8419,-1.51391 0,0 -2.29608,-13.06992 -3.40626,-15.54262 -0.46771,-1.04167 -2.42224,-5.39955 3.02779,-4.59215 5.45,0.80743 10.95049,-0.8074 12.06067,-0.656 1.1102,0.1514 3.07824,1.41296 4.18843,1.31203 1.1102,-0.10081 3.73427,-1.76621 2.11946,-4.08752 -1.61482,-2.32129 -3.45682,-2.99541 -5.85371,-0.50461 -6.29528,3.03533 -12.40582,0.65289 -18.37723,-0.24365 -12.29281,-1.84564 -23.3553,-14.82926 -24.17182,-17.86395 -0.67119,-2.49459 2.37726,-3.24587 7.1084,-5.13645 4.5641,-1.82383 9.0765,-5.5349 11.82391,-7.23565 2.11945,-1.31205 7.23909,-2.40263 10.84956,-0.85788 1.34566,0.57574 0.55511,2.11944 2.27086,2.47269 1.71574,0.35325 3.73425,-1.1102 3.1287,-2.72502 -0.60556,-1.6148 -3.53243,-2.72498 -4.18843,-1.86713 -0.65602,0.85788 -5.38135,-1.85034 -5.80326,-2.32129 -0.75549,-0.84332 1.46343,-3.12871 4.18843,-3.4315 2.72502,-0.30276 6.66114,-1.00925 7.36761,-0.60555 0.70649,0.40371 1.56433,1.56437 3.02779,1.66529 1.46342,0.10082 1.81596,-2.92186 0.60557,-3.63335 -2.99802,-1.76231 -3.32349,-0.88682 -9.38615,0.20185 -5.0969,0.91525 -5.75279,0.40371 -11.20281,6.35837 -5.45,5.95463 -15.34078,9.48705 -22.0019,10.29446 -6.66113,0.8074 -18.22107,-7.99795 -18.97643,-11.12677 -0.39455,-1.63434 4.68663,-21.65095 17.3403,-31.45903 13.48942,-10.45591 31.22243,-3.59274 36.98975,2.38548 9.96182,10.32609 12.75091,12.32865 16.9453,18.22989 1.09698,1.54339 2.24802,2.64051 1.96257,4.21057 -0.28548,1.57003 0.67795,3.42555 2.96165,3.14008 2.2837,-0.28546 3.78239,-1.78413 2.49782,-3.78237 -1.2846,-1.99824 -2.7119,-1.14186 -2.99736,-1.99824 -0.28548,-0.85638 -6.2354,-9.76399 -8.305,-10.97719 2.91007,2.564 13.89632,6.92562 16.72613,10.19217 1.10284,1.27302 1.71278,2.14096 3.28281,1.57003 1.57005,-0.57092 1.64142,-3.42554 0.35684,-4.10351 -2.19546,-1.15872 -2.17666,-0.24978 -3.63965,-0.99911 -1.35044,-0.69169 -7.35065,-4.10354 -9.70572,-5.31674 -2.35507,-1.21323 -8.00176,-5.71805 -16.34274,-12.48897 -2.58582,-2.09909 -9.59865,-6.49428 -11.52553,-8.77796 0,0 3.46123,-1.03482 15.52202,3.31849 12.31916,4.44656 28.34092,4.81289 31.04401,4.28193 3.08398,-0.68839 3.83722,-0.79722 5.38812,-0.2498 2.04125,0.72053 3.49691,-1.53435 1.99824,-2.81893 -1.49869,-1.28457 -2.77913,-0.54388 -3.42555,0.0355 -1.03481,0.92777 -6.35153,0.82072 -8.42114,0.60661 -2.06962,-0.21409 -6.92247,-1.07048 -6.637,-1.92686 0.28546,-0.85638 1.64224,-0.62363 4.31761,-2.31938 2.31873,-1.46968 5.53083,-3.78238 7.77886,-5.28104 2.14507,-1.43008 3.88608,-3.34858 4.85285,-3.56828 0.78501,-0.17842 2.17666,-0.42819 2.17666,-1.64142 0,-1.21322 -1.35594,-3.06872 -2.85464,-2.42644 -1.49866,0.64229 -1.46199,1.83054 -1.78414,2.21234 -0.96343,1.14185 -3.71101,3.14009 -6.06607,4.56739 -1.12207,0.68003 -9.53298,6.66475 -18.41231,5.35242 -5.87286,-0.86798 -14.02336,-3.63963 -20.30352,-4.99559 -4.71111,-1.01717 -15.98588,-1.21321 -18.97294,0.69672 0,0 7.42394,-7.87008 9.86434,-11.62957 2.73813,-4.21812 10.10794,-7.84123 11.45958,-8.73055 1.40071,-0.92163 3.3359,-1.86785 4.25832,-1.64037 1.44129,0.35547 3.23627,-0.33989 3.14096,-2.21424 -0.0952,-1.87436 -2.21275,-1.97256 -3.07869,-1.54852 -1.62795,0.79716 -1.24904,1.3208 -1.87177,1.79218 -2.10047,1.58995 -10.4596,3.83624 -12.49648,5.44896 -2.59194,2.05218 2.08988,-8.83253 3.30099,-9.84179 1.21113,-1.00925 3.45338,-1.89007 3.27548,-3.39686 -0.13663,-1.15706 -1.77591,-3.74442 -4.69264,-1.80127 -1.76585,1.17644 -1.6812,3.33747 -1.54029,4.28071 0.23176,1.55149 -1.97674,3.69543 -3.3897,7.42968 -1.41296,3.73428 -3.93612,12.51485 -10.4963,16.35005 -6.56022,3.8352 -19.98445,11.64325 -25.53538,18.50624 0,0 -2.32026,-0.2386 -1.81563,-4.27566 0.50463,-4.03702 7.34334,-22.68398 11.10188,-28.15839 4.64261,-6.76204 7.2067,-11.70531 19.3605,-16.57533 7.33534,-2.93927 11.81239,-4.7619 14.53739,-4.45912 2.72501,0.30277 4.48572,1.02554 5.49498,0.31904 1.00926,-0.70647 1.19453,-4.62751 -0.29368,-5.07271 -3.19439,-0.9556 -3.4521,2.04192 -5.61722,1.82892 -2.46671,-0.24266 -6.83746,0.0397 -11.48006,2.361 -4.6426,2.32132 -3.22964,-0.35325 -3.22964,-0.35325 0,0 3.41861,-4.47597 2.54839,-11.80835 -0.93708,-7.89569 -2.14469,-10.34493 -1.84191,-11.65696 0.30277,-1.31206 0.90833,-2.32132 -0.50463,-3.4315 -1.41296,-1.1102 -4.42382,0.5676 -3.98657,2.32129 0.37862,1.51868 1.46865,1.40737 1.7662,2.37179 1.46342,4.7435 2.67455,14.28103 -1.00925,18.92364 -3.84521,4.846 -12.10016,11.30743 -16.54875,15.49576 -2.80757,2.64331 -5.95779,9.63486 -5.95779,9.63486 0,0 -1.94488,-8.822 -4.64262,-12.91855 -0.68125,-1.03449 -2.16992,-2.90162 -1.46343,-3.91087 0.70647,-1.00928 -0.19616,-3.29083 -2.16991,-3.05303 -2.09421,0.2523 -3.12995,2.68626 -1.99329,3.50717 1.3625,0.98404 6.23219,10.01692 6.03033,14.76047 -0.20184,4.74352 -0.656,12.969 -2.37176,16.29957 -1.71574,3.33056 -3.48195,9.94122 -2.8764,11.25326 0.60557,1.31204 -10.03929,-7.92387 -12.41391,-11.50558 -4.84043,-5.65984 -6.95624,-14.10411 -7.56945,-15.89587 -0.46016,-1.34457 0.75693,-3.17917 -1.96808,-3.48195 -2.725,-0.30278 -3.80443,3.0734 -2.37177,3.33057 1.96809,0.35323 4.70726,10.65138 7.16577,15.34076 1.59895,3.04985 3.78474,5.45003 1.7662,4.84445 -2.01851,-0.60555 -7.01436,-1.81666 -11.65696,-1.6148 -4.64261,0.20184 -13.22134,-4.64261 -13.52411,-6.25744 -0.30278,-1.61481 -3.63335,-3.22962 -4.6426,-1.81666 -1.00928,1.41296 -0.54264,4.08199 0.35323,4.44075 1.11353,0.44594 3.03686,0.62601 4.28937,1.61484 1.91759,1.51388 9.48705,4.18842 8.57872,5.2986 -0.90834,1.11019 -2.82593,1.66529 -4.54169,1.76621 -4.77188,0.45354 -18.39423,-4.69443 -19.17596,-8.12455 -0.10082,-1.41296 -3.38103,-4.2389 -4.64261,-3.8352 -1.38633,0.44361 -2.8878,3.23546 -1.66529,4.0875 1.66529,1.16066 3.7878,1.21378 4.49123,2.32132 2.37176,3.73426 10.59727,7.46854 13.62503,8.07409 3.02779,0.60556 9.28521,1.31204 9.78983,1.31204 0.50463,0 -2.22123,1.60448 -3.97373,4.08582 -1.6437,2.32736 -3.0146,6.12577 -4.62231,7.01711 -1.17305,0.65038 -2.06539,1.7677 -0.35682,2.62302 2.23263,1.11768 3.43229,-0.12632 3.24696,-0.96535 -0.45358,-2.05356 2.04988,-4.93973 3.31324,-6.48787 8.99309,-11.02036 15.61679,-9.24546 20.15567,-9.50237 5.3491,-0.30278 19.29957,10.2248 17.86395,22.10283 -2.39508,19.81623 -25.42226,21.36733 -25.42226,21.36733"
           id="path4800"
           inkscape:connector-curvature="0"
           sodipodi:nodetypes="cssscssscssssscsssssssssssssssssssssssccsssssscscsssssssssssssscssszssssssssscsssssssscssssssscssssssscsssssssssssccssssssssssssc"
           inkscape:export-filename="/home/kenny/src/axopy/doc/source/logos/axopy.png"
           inkscape:export-xdpi="99.550278"
           inkscape:export-ydpi="99.550278" />
        <path
           style="display:inline;opacity:1;fill:none;fill-rule:evenodd;stroke:#d3d3d3;stroke-width:2;stroke-linecap:round;stroke-linejoin:round;stroke-miterlimit:4;stroke-dasharray:none;stroke-opacity:1"
           d="m 132.81769,766.13383 c -4.01777,6.02342 -1.78724,16.48036 3.63687,17.3058 8.31205,1.26493 40.17061,2.41547 43.18885,-3.99605 2.57634,-5.47274 2.62918,-13.5561 -2.25117,-15.92676 -14.58224,-7.08336 -40.39983,-3.64166 -44.57455,2.61701 z"
           id="path4802"
           inkscape:connector-curvature="0"
           sodipodi:nodetypes="sssss"
           inkscape:export-filename="/home/kenny/src/axopy/doc/source/logos/axopy.png"
           inkscape:export-xdpi="99.550278"
           inkscape:export-ydpi="99.550278" />
        <path
           style="display:inline;opacity:1;fill:none;fill-rule:evenodd;stroke:#d3d3d3;stroke-width:2;stroke-linecap:round;stroke-linejoin:round;stroke-miterlimit:4;stroke-dasharray:none;stroke-opacity:1"
           d="m 121.33582,785.90593 c 9.17704,-2.33145 9.41438,-5.48412 9.20029,-9.0524 -0.2141,-3.56828 0.61729,-8.19468 -10.24372,-10.38626"
           id="path4804"
           inkscape:connector-curvature="0"
           sodipodi:nodetypes="csc"
           inkscape:export-filename="/home/kenny/src/axopy/doc/source/logos/axopy.png"
           inkscape:export-xdpi="99.550278"
           inkscape:export-ydpi="99.550278" />
      </g>
    </clipPath>
    <clipPath
       clipPathUnits="userSpaceOnUse"
       id="clipPath5026">
      <g
         id="g5028">
        <g
           id="g5030">
          <path
             style="fill:none;fill-rule:evenodd;stroke:#000000;stroke-width:1px;stroke-linecap:butt;stroke-linejoin:miter;stroke-opacity:1"
             d="m 354.68982,698.93508 c -2.36868,-2.51445 4.67194,-7.3236 7.7024,-6.81853 3.03046,0.50508 7.70241,3.03046 5.93465,7.32361 -1.76777,4.29315 -3.40926,3.91434 -1.38896,7.19734 2.02031,3.28299 17.5514,28.91561 19.57171,36.61803 2.0203,7.70241 13.51079,19.44543 14.14213,20.58185 0.63135,1.13643 0.12627,10.48034 1.76777,12.12183 1.6415,1.6415 -6.9448,13.00572 -9.84899,18.43529 -2.90419,5.42957 -24.11739,38.51206 -32.95622,41.03745 -10.04853,2.87102 -10.48034,5.42957 -6.9448,-5.42957 3.53553,-10.85914 15.53109,-23.35978 16.79378,-27.27413 1.26269,-3.91434 10.22779,-33.84011 9.59645,-38.63833 -0.63135,-4.79823 1.01015,-8.33375 0.75761,-10.6066 -0.25254,-2.27284 -2.90418,-8.46003 -3.40926,-9.47018 -0.50508,-1.01016 -9.47018,-19.1929 -10.35406,-23.73859 -0.88388,-4.54568 -7.31204,-17.03793 -11.36421,-21.33947 z"
             id="path5032"
             inkscape:connector-curvature="0"
             sodipodi:nodetypes="ssssssssssssssss" />
          <path
             style="fill:none;fill-rule:evenodd;stroke:#000000;stroke-width:1px;stroke-linecap:butt;stroke-linejoin:miter;stroke-opacity:1"
             d="m 354.82143,690.21935 c 0,0 5.89286,-9.82143 14.28571,-9.46429 8.39286,0.35714 16.96429,4.82143 18.92858,9.10714 1.96428,4.28572 8.03571,23.21429 10.71428,25.17858 2.67857,1.96428 13.57143,6.25 15,8.57142 1.42857,2.32143 20.71429,25.17858 24.10714,25.71429 3.39286,0.53571 2.67858,18.39286 -0.53571,23.03571 -3.21429,4.64286 -44.82143,50 -46.96429,50.89286 -2.14285,0.89286 -11.60714,9.64286 -14.82142,13.75 -3.21429,4.10714 -16.07143,11.60714 -20.71429,10.53572 -4.64286,-1.07143 -8.39286,-4.46429 -7.85714,-5.17858 0.53571,-0.71428 3.03571,0.35715 4.82143,0.17858 1.78571,-0.17858 12.67857,-6.78572 14.46428,-9.64286 1.78572,-2.85714 28.39286,-30.89286 28.57143,-32.32143 0.17857,-1.42857 5.71429,-18.03571 9.46429,-20.71429 3.75,-2.67857 -0.89286,-11.42857 0.17857,-16.42857 1.07143,-5 -2.67857,-1.25 -6.60715,-7.85714 -3.92857,-6.60714 -7.67857,-11.60714 -8.75,-16.78571 -1.07142,-5.17858 -15.17857,-28.57143 -18.75,-32.85715 -3.57142,-4.28571 0.89286,-4.82143 0.89286,-7.14285 0,-2.32143 -0.17857,-7.14286 -3.39286,-9.10715 -3.21428,-1.96428 -10.71428,3.75 -11.25,2.14286 -0.53571,-1.60714 -2.32142,0 -1.78571,-1.60714 z"
             id="path5034"
             inkscape:connector-curvature="0" />
        </g>
        <path
           inkscape:connector-curvature="0"
           id="path5036"
           d="m 450,819.14792 c -24.10714,-6.07143 -51.42857,0.53571 -51.42857,0.53571 0,0 44.10714,-43.39285 44.28571,-51.78571 0.17858,-8.39286 -1.78571,-11.42857 0.53572,-9.64286 2.32143,1.78572 31.78571,15.17857 35.17857,15"
           style="fill:none;fill-rule:evenodd;stroke:#000000;stroke-width:1px;stroke-linecap:butt;stroke-linejoin:miter;stroke-opacity:1" />
        <circle
           r="5.8077435"
           cy="730.57648"
           cx="398.21429"
           id="circle5038"
           style="opacity:1;fill:none;fill-opacity:1;stroke:#000000;stroke-width:0.81308413;stroke-linecap:round;stroke-linejoin:round;stroke-miterlimit:4;stroke-dasharray:none;stroke-dashoffset:0;stroke-opacity:1" />
      </g>
    </clipPath>
    <clipPath
       clipPathUnits="userSpaceOnUse"
       id="clipPath4393">
      <g
         id="g4395">
        <path
           sodipodi:nodetypes="cscsssssssssccsscssssscsc"
           inkscape:connector-curvature="0"
           id="path4397"
           d="m -205.69554,658.34662 c -8.125,1.07143 -34.64285,-1.51785 -61.07142,-6.69642 -26.42858,-5.17858 -49.75224,-3.36624 -49.75224,-3.36624 -13.76333,0.1894 -21.40261,4.92449 -28.78935,7.82868 -6.81271,2.6785 -19.76111,12.75318 -25.06441,19.06663 -5.3033,6.31345 -20.20305,13.51079 -29.04189,12.4375 -8.83883,-1.07328 -8.80589,-6.60259 -8.20548,-11.05545 0.17349,-1.28666 2.11501,-1.70586 1.01216,-3.01197 -1.3257,-1.57004 -2.54273,-4.68111 -1.68213,-4.55575 2.54354,0.37049 4.18315,-1.22606 6.21771,-6.11167 8.44252,-20.27311 16.28775,-23.73173 17.35918,-26.58888 1.07143,-2.85714 11.07143,-16.78571 12.14285,-30.17857 1.07143,-13.39286 6.78572,-29.375 6.78572,-29.375 -1.96428,-4.10713 -1.80197,-11.6939 -1.80197,-11.6939 -0.34089,0.2207 -4.13421,-5.36864 -8.06278,-16.08292 -3.92858,-10.71429 -14.89856,-38.9127 -21.3916,-44.24611 -5.57647,-4.58054 -3.43052,-2.36522 -0.20313,-8.74113 0,0 -2.60916,-14.16509 21.54877,-20.30736 4.14511,-1.05391 20.55347,4.48572 25.26785,20.08929 6.02594,19.94453 13.3062,27.61358 19.46429,30.35714 4.48789,1.99945 12.23448,7.01209 15.64374,12.94673 3.40927,5.93465 17.67982,19.17225 21.3305,21.43139 7.31277,4.52534 7.99828,7.75788 8.57478,12.85343 0.58039,0.28815 5.52241,9.19701 38.11169,18.39344 32.58929,9.19643 57.86342,10.41294 63.92433,8.89771"
           style="display:inline;opacity:0.95999995;fill:none;fill-rule:evenodd;stroke:#223350;stroke-width:1px;stroke-linecap:round;stroke-linejoin:round;stroke-opacity:1" />
      </g>
    </clipPath>
  </defs>
  <sodipodi:namedview
     id="base"
     pagecolor="#ffffff"
     bordercolor="#666666"
     borderopacity="1.0"
     inkscape:pageopacity="0.0"
     inkscape:pageshadow="2"
     inkscape:zoom="0.70000001"
     inkscape:cx="698.04725"
     inkscape:cy="540.21073"
     inkscape:document-units="px"
     inkscape:current-layer="layer2"
     showgrid="false"
     showguides="true"
     inkscape:snap-global="true"
     inkscape:guide-bbox="true"
     inkscape:window-width="1916"
     inkscape:window-height="1054"
     inkscape:window-x="1920"
     inkscape:window-y="22"
     inkscape:window-maximized="0" />
  <metadata
     id="metadata7">
    <rdf:RDF>
      <cc:Work
         rdf:about="">
        <dc:format>image/svg+xml</dc:format>
        <dc:type
           rdf:resource="http://purl.org/dc/dcmitype/StillImage" />
        <dc:title></dc:title>
      </cc:Work>
    </rdf:RDF>
  </metadata>
  <g
     inkscape:groupmode="layer"
     id="layer5"
     inkscape:label="border"
     style="display:inline">
    <circle
       style="display:inline;opacity:1;fill:#293f59;fill-opacity:1;stroke:#000000;stroke-width:1.27652621;stroke-linecap:round;stroke-miterlimit:4;stroke-dasharray:none;stroke-dashoffset:0;stroke-opacity:1"
       id="path4316-2"
       cx="274.06165"
       cy="752.72974"
       inkscape:export-xdpi="99.903435"
       inkscape:export-ydpi="99.903435"
       clip-path="url(#clipPath4796)"
       transform="translate(78.801664,-82.582302)"
       r="159.25154" />
    <flowRoot
       xml:space="preserve"
       id="flowRoot5332"
       style="font-style:normal;font-weight:normal;font-size:12px;line-height:125%;font-family:sans-serif;letter-spacing:0px;word-spacing:0px;fill:#000000;fill-opacity:1;stroke:none;stroke-width:1px;stroke-linecap:butt;stroke-linejoin:miter;stroke-opacity:1"
       transform="translate(20,87.142857)"><flowRegion
         id="flowRegion5334"><rect
           id="rect5336"
           width="142.93658"
           height="21.718281"
           x="96.97464"
           y="36.148754" /></flowRegion><flowPara
         id="flowPara5338">original source drawing</flowPara></flowRoot>    <flowRoot
       xml:space="preserve"
       id="flowRoot5340"
       style="font-style:normal;font-weight:normal;font-size:32px;line-height:125%;font-family:sans-serif;letter-spacing:0px;word-spacing:0px;fill:#343131;fill-opacity:1;stroke:none;stroke-width:1px;stroke-linecap:butt;stroke-linejoin:miter;stroke-opacity:1;"
       transform="translate(65.660894,-131.08412)"
       inkscape:export-xdpi="99.903435"
       inkscape:export-ydpi="99.903435"><flowRegion
         id="flowRegion5342"><rect
           id="rect5344"
           width="336.42856"
           height="93.571426"
           x="136.42857"
           y="835.21936"
           style="font-size:32px;fill:#343131;fill-opacity:1;" /></flowRegion><flowPara
         id="flowPara5346"
         style="font-style:normal;font-variant:normal;font-weight:normal;font-stretch:normal;font-size:40px;font-family:'Liberation Serif';-inkscape-font-specification:'Liberation Serif';fill:#343131;fill-opacity:1;">AxoPy</flowPara></flowRoot>    <flowRoot
       transform="translate(52.177314,467.56332)"
       xml:space="preserve"
       id="flowRoot5332-6"
       style="font-style:normal;font-weight:normal;font-size:12px;line-height:125%;font-family:sans-serif;letter-spacing:0px;word-spacing:0px;display:inline;fill:#000000;fill-opacity:1;stroke:none;stroke-width:1px;stroke-linecap:butt;stroke-linejoin:miter;stroke-opacity:1"><flowRegion
         id="flowRegion5334-8"><rect
           id="rect5336-4"
           width="142.93658"
           height="21.718281"
           x="96.97464"
           y="36.148754" /></flowRegion><flowPara
         id="flowPara5338-6">filled version for logos</flowPara></flowRoot>  </g>
  <g
     inkscape:groupmode="layer"
     id="layer2"
     inkscape:label="snake drawing"
     style="display:inline;opacity:1">
    <path
       style="color:#000000;clip-rule:nonzero;display:inline;overflow:visible;visibility:visible;opacity:1;isolation:auto;mix-blend-mode:normal;color-interpolation:sRGB;color-interpolation-filters:linearRGB;solid-color:#000000;solid-opacity:1;fill:#293f59;fill-opacity:1;fill-rule:nonzero;stroke:none;stroke-width:0;stroke-linecap:butt;stroke-linejoin:miter;stroke-miterlimit:4;stroke-dasharray:none;stroke-dashoffset:0;stroke-opacity:1;color-rendering:auto;image-rendering:auto;shape-rendering:auto;text-rendering:auto;enable-background:accumulate"
       clip-path="url(#clipPath4393)"
       d="m -330.43924,446.87847 c -88.36603,0 -140.98915,63.99526 -140.98849,147.62739 4.9e-4,83.63136 42.48379,140.02082 130.84901,140.02082 88.36521,0 124.51135,-39.32387 133.38388,-134.95108 7.72641,-83.27446 -34.87838,-152.69713 -123.2444,-152.69713 z m -57.4592,42.23872 c 0.33048,-10e-4 0.65815,0.0143 0.98242,0.0449 1.29709,0.12265 2.53914,0.48971 3.67969,1.00781 2.2811,1.0362 4.19462,2.66399 5.56055,4.2793 0.68297,0.80765 1.22898,1.61115 1.61328,2.36523 0.3843,0.75408 0.63881,1.43664 0.59961,2.18164 -0.1069,2.03114 -1.14943,4.44523 -2.13086,6.47657 -0.82825,1.71427 -1.40337,2.66563 -1.63672,3.0625 0.31315,0.45908 5.42595,7.94245 11.07227,16.97656 2.90827,4.65324 5.87431,9.58824 8.23437,13.9375 0.95478,1.75952 1.77367,3.37365 2.48828,4.88281 -0.66618,-5.90359 -5.01545,-16.3445 -9.28515,-25.33984 -4.40865,-9.28805 -8.70508,-17.08399 -8.70508,-17.08399 -0.18823,-0.32939 0.0445,-0.7402 0.42383,-0.74804 0.18843,-0.004 0.36285,0.0991 0.45117,0.26562 0,0 4.30878,7.81709 8.73242,17.13672 4.42364,9.31963 8.977,20.07808 9.44336,26.27148 0.0397,0.32033 -0.22993,0.5938 -0.55078,0.5586 0.80226,1.78821 1.3711,3.34577 1.62305,4.60547 1.57668,7.88344 10.54665,19.92624 19.15429,29.7539 8.60765,9.82767 16.80274,17.57227 16.80274,17.57227 0.96875,0.91667 -0.40625,2.36979 -1.375,1.45312 0,0 -6.1563,-5.82288 -13.41992,-13.78515 -0.15754,2.78094 0.48358,5.71805 1.0664,8.36914 0.34524,1.57038 0.66478,3.03595 0.73438,4.37109 0.0696,1.33514 -0.11446,2.63857 -1.00782,3.5957 -1.01642,1.08904 -3.12595,4.68192 -5.45117,9.25586 -2.32521,4.57394 -4.97094,10.20969 -7.46679,15.73633 -1.34938,2.98789 -4.66379,7.60064 -9.05274,13.07422 -4.38895,5.47358 -9.83686,11.74058 -15.36328,17.74805 -5.52642,6.00746 -11.12974,11.75102 -15.83789,16.17578 -2.35408,2.21238 -4.48259,4.09539 -6.2793,5.52344 -1.7967,1.42805 -3.20526,2.4039 -4.39844,2.83008 -4.03011,1.4393 -6.97442,0.31621 -8.68554,-1.23047 -1.71112,-1.54668 -2.17774,-3.91407 -2.17774,-3.91407 -0.44888,-1.28034 1.29882,-3.75408 1.70313,-2.45898 0,0 0.53351,3.73083 1.81445,4.88867 1.28094,1.15784 3.20395,2.06932 6.67383,0.83008 0.68182,-0.24351 2.09749,-1.13773 3.82617,-2.51172 1.72869,-1.37399 3.82645,-3.22633 6.1543,-5.41406 4.65569,-4.37546 10.23596,-10.09313 15.73633,-16.07227 5.50036,-5.97914 10.92354,-12.22162 15.27343,-17.64648 4.34989,-5.42486 7.64039,-10.09866 8.79102,-12.64649 2.5041,-5.54479 5.15758,-11.19904 7.50586,-15.81836 2.34828,-4.61931 4.28791,-8.12334 5.77148,-9.71289 0.35665,-0.38211 0.53101,-1.04724 0.47461,-2.1289 -0.0564,-1.08167 -0.34785,-2.48218 -0.6914,-4.04492 -0.68712,-3.1255 -1.59029,-6.91916 -0.91602,-10.67579 0.006,-0.0343 0.0242,-0.0628 0.0332,-0.0957 -0.58082,-0.6493 -1.15504,-1.2808 -1.74218,-1.95117 -8.67901,-9.90914 -17.83462,-21.79413 -19.61133,-30.67774 -0.39086,-1.95429 -2.09053,-5.69914 -4.41797,-9.98828 -2.32744,-4.28913 -5.27853,-9.1976 -8.17383,-13.83007 -5.79059,-9.26495 -11.36133,-17.42188 -11.36133,-17.42188 -0.2199,-0.32249 -0.23223,-0.74345 -0.0312,-1.07812 0,0 0.91531,-1.52883 1.85352,-3.47071 0.93821,-1.94187 1.86189,-4.34922 1.93359,-5.71094 0.005,-0.1032 -0.0892,-0.58809 -0.38476,-1.16796 -0.29552,-0.57987 -0.7599,-1.2758 -1.35742,-1.98243 -1.19509,-1.41324 -2.91942,-2.86877 -4.85938,-3.75 -1.93996,-0.88123 -4.05725,-1.20522 -6.22852,-0.47851 -2.17126,0.72671 -5.48707,1.84392 -7.6875,5.51953 -0.68505,1.14397 -1.39136,0.81236 -0.70703,-0.33203 2.37007,-3.95897 5.04014,-6.17374 7.75977,-7.08399 1.01986,-0.34134 2.0359,-0.49452 3.02734,-0.49804 z m 3.55078,21.64062 c 0.0169,-8.6e-4 0.0339,-8.6e-4 0.0508,0 0.32147,0.0135 0.54664,0.32272 0.46094,0.63281 -0.52578,2.01556 -1.9968,4.30035 -2.28906,4.74805 1.06429,1.16176 2.76168,3.35852 4.32812,5.46485 1.65495,2.22521 3.0625,4.1914 3.0625,4.1914 0.42233,0.54702 -0.43045,1.1579 -0.8125,0.58203 3e-5,0 -1.40409,-1.96099 -3.05273,-4.17773 -1.64863,-2.21675 -3.56543,-4.70885 -4.49219,-5.67774 -0.16047,-0.16813 -0.18402,-0.42467 -0.0566,-0.61914 0,0 1.85333,-2.87621 2.34571,-4.76367 0.0518,-0.21296 0.23631,-0.36736 0.45507,-0.38086 z m 45.51563,22.15235 c 3.67724,2.9e-4 6.65811,3.05286 6.6582,6.81836 -9e-5,3.7655 -2.98096,6.81807 -6.6582,6.81836 -3.67724,-2.9e-4 -6.65811,-3.05286 -6.6582,-6.81836 9e-5,-3.7655 2.98096,-6.81807 6.6582,-6.81836 z m -19.53163,28.21679 c 0.68549,-0.007 1.17512,0.66129 0.96094,1.3125 0,0 -7.3946,23.61061 -6.14258,49.40235 0.12547,1.38432 -1.98584,1.48771 -1.99609,0.0976 -1.27336,-26.23112 6.23047,-50.09765 6.23047,-50.09765 0.12499,-0.42012 0.50898,-0.70989 0.94726,-0.71485 z m 74.22304,9.76563 c 0.60347,0.0142 1.0569,0.55576 0.96484,1.15234 -1.02124,7.31434 -5.85042,21.48353 -10.54883,27.47266 -0.8229,1.04962 -2.39728,-0.18488 -1.57422,-1.23438 4.12882,-5.26305 9.19508,-19.74342 10.14063,-26.51562 0.0641,-0.50974 0.50397,-0.88799 1.01758,-0.875 z m -55.38477,9.21094 c 0.68448,-0.0343 1.19988,0.61443 1.01172,1.27343 0,0 -1.20987,4.46755 -2.51367,9.59571 -1.30381,5.12815 -2.70558,10.97033 -3.06446,13.48242 -0.40023,2.80168 -1.46889,5.88389 -2.27343,8.84375 -0.80452,2.95985 -1.31114,5.77724 -0.82032,7.84961 0.3602,1.32893 -1.67092,1.8102 -1.94531,0.46094 -0.6456,-2.72587 0.008,-5.7885 0.83594,-8.83594 0.82836,-3.04745 1.86528,-6.09799 2.22265,-8.59961 0.39875,-2.79121 1.79919,-8.54776 3.10743,-13.69336 1.30823,-5.1456 2.51953,-9.62695 2.51953,-9.62695 0.10911,-0.4246 0.48204,-0.72865 0.91992,-0.75 z m 26.39062,39.99218 c 0.81875,-0.007 1.29838,0.91926 0.82032,1.58399 -2.58786,3.71588 -10.4162,12.45577 -17.93946,20.62304 -3.76162,4.08364 -7.43178,8.00083 -10.29297,11.00977 -1.43058,1.50447 -2.65807,2.78058 -3.5957,3.74023 -0.93763,0.95966 -1.54211,1.56718 -1.89258,1.86915 -1.01298,0.90644 -2.35173,-0.64876 -1.30468,-1.51563 0.16249,-0.14 0.83797,-0.80055 1.76562,-1.75 0.92766,-0.94945 2.15184,-2.22271 3.57813,-3.72266 2.85257,-2.9999 6.51739,-6.91087 10.27148,-10.98632 7.50819,-8.15092 15.43093,-17.05499 17.76758,-20.41016 0.18443,-0.27384 0.49212,-0.43902 0.82226,-0.44141 z m -67.96289,37.1875 c 0.0117,-4.1e-4 0.0234,-4.1e-4 0.0352,0 0.3424,0.002 0.58107,0.34061 0.46875,0.66407 -0.10157,0.30471 -0.2508,0.4261 -0.47461,0.66406 -0.22381,0.23796 -0.52171,0.52143 -0.89062,0.84375 -0.73784,0.64463 -1.75448,1.44243 -2.9668,2.27344 -2.42464,1.662 -5.62731,3.46008 -8.92774,4.39843 -3.21858,0.9151 -4.8688,1.40175 -5.70898,1.73047 -0.42009,0.16436 -0.62531,0.28765 -0.72461,0.37305 -0.0993,0.0854 -0.13186,0.14457 -0.22266,0.32617 0.0222,-0.0444 -0.0277,0.10621 -0.043,0.30859 -0.0157,0.20239 -0.0197,0.47514 -0.0137,0.78516 0.0115,0.62004 0.0624,1.39293 0.125,2.14453 0.12527,1.5032 0.29688,2.91797 0.29688,2.91797 0.10609,0.68097 -0.93139,0.80759 -0.99219,0.12109 0,0 -0.17546,-1.42782 -0.30273,-2.95507 -0.0637,-0.76363 -0.11476,-1.55251 -0.12696,-2.21094 -0.006,-0.32922 -0.004,-0.62554 0.0156,-0.87891 0.0192,-0.25337 0.0315,-0.44585 0.14844,-0.67968 0.0986,-0.19723 0.22663,-0.43352 0.46289,-0.63672 0.23625,-0.2032 0.54251,-0.3633 1.01172,-0.54688 0.93841,-0.36715 2.57964,-0.84395 5.80078,-1.75976 3.13929,-0.89255 6.27201,-2.64409 8.63476,-4.26368 1.18138,-0.80979 2.1727,-1.58558 2.875,-2.19922 0.35115,-0.30678 0.63002,-0.57304 0.82031,-0.77539 0.19032,-0.20237 0.29231,-0.41218 0.25391,-0.29687 0.0625,-0.19667 0.23936,-0.33476 0.44531,-0.34766 z"
       id="path4349"
       inkscape:connector-curvature="0"
       transform="matrix(0.79700585,0,0,0.79700585,696.64255,197.50624)"
       sodipodi:nodetypes="sssssccssscscsscscccsccsscccsscsssssscsccsssssssscssccssssccscccssccscccccccccscccccccccccccccccccccccccssscccssccccsssccssscccccscsssscccccccccccsssccccc"
       inkscape:export-xdpi="99.903435"
       inkscape:export-ydpi="99.903435" />
    <path
       style="fill:none;fill-rule:evenodd;stroke:#223350;stroke-width:1px;stroke-linecap:round;stroke-linejoin:round;stroke-opacity:1"
       d="m 407.56949,367.7356 c 0,0 -2.32686,-0.84597 -2.50543,-4.95312 0,0 1.56525,0.26851 3.58556,-0.99418 2.0203,-1.26269 11.90341,-18.16667 29.94743,-24.17604 7.65534,-2.54953 12.75317,-22.47589 12.75317,-22.47589"
       id="path4233"
       inkscape:connector-curvature="0"
       sodipodi:nodetypes="ccssc" />
    <path
       style="fill:none;fill-rule:evenodd;stroke:#223350;stroke-width:1px;stroke-linecap:round;stroke-linejoin:round;stroke-opacity:1"
       d="m 493.57143,291.82649 c 0,0 -32.8966,-31.09011 -36.25,-47.85715 -1.78571,-8.92857 -24.10714,-41.60714 -24.10714,-41.60714 0,0 3.75,-6.25 3.92857,-9.64285 0.17857,-3.39286 -12.22445,-17.00071 -21.36544,-1.73156 -1.68627,2.81674 -3.14595,3.43164 0.82338,7.47647 5.88535,5.99729 17.46302,33.53182 21.3916,44.24611 3.92857,10.71428 8.79332,15.54469 9.86475,16.0804"
       id="path4239"
       inkscape:connector-curvature="0"
       sodipodi:nodetypes="cscssssc" />
    <path
       style="fill:none;fill-rule:evenodd;stroke:#223350;stroke-width:1px;stroke-linecap:round;stroke-linejoin:round;stroke-opacity:1"
       d="m 445.32465,258.03688 c 0,0 0.56822,8.34318 2.5325,12.45032 0,0 -5.71429,15.98214 -6.78572,29.375 -1.07142,13.39286 -11.07142,27.32143 -12.14285,30.17857 -1.07143,2.85715 -8.91666,6.31577 -17.35918,26.58888"
       id="path4241"
       inkscape:connector-curvature="0"
       sodipodi:nodetypes="ccssc" />
    <path
       style="fill:none;fill-rule:evenodd;stroke:#223350;stroke-width:1px;stroke-linecap:round;stroke-linejoin:round;stroke-opacity:1"
       d="m 438.61607,195.44256 c 0,0 17.21366,31.22702 18.11549,43.20368"
       id="path4243"
       inkscape:connector-curvature="0"
       sodipodi:nodetypes="cc" />
    <path
       style="fill:none;fill-rule:evenodd;stroke:#223350;stroke-width:1px;stroke-linecap:round;stroke-linejoin:round;stroke-opacity:1"
       d="m 416.77807,187.32467 c 0,0 -2.98956,-11.76663 21.16837,-17.9089 4.14511,-1.05391 20.55347,4.48572 25.26785,20.08929 6.02594,19.94453 13.3062,27.61358 19.46429,30.35714 4.48789,1.99945 12.23448,7.01209 15.64374,12.94673 3.40927,5.93465 17.67982,19.17225 21.3305,21.43139 14.62554,9.05067 7.79279,27.07234 -1.03444,38.32452"
       id="path4245"
       inkscape:connector-curvature="0"
       sodipodi:nodetypes="csssssc" />
    <path
       style="fill:none;fill-rule:evenodd;stroke:#223350;stroke-width:1px;stroke-linecap:round;stroke-linejoin:round;stroke-opacity:1"
       d="m 607.94643,352.09434 c -8.125,1.07143 -34.64285,-1.51785 -61.07142,-6.69642 -26.42858,-5.17858 -49.75224,-3.36624 -49.75224,-3.36624 -13.76333,0.1894 -21.40261,4.92449 -28.78935,7.82868 -6.81271,2.6785 -19.76111,12.75318 -25.06441,19.06663 -5.3033,6.31345 -20.20305,13.51079 -29.04189,12.4375 -8.83883,-1.07328 -7.88981,-10.92918 -7.88981,-10.92918 0,0 2.23412,6.74832 9.73412,4.06975 7.5,-2.67857 45.35715,-43.75 50.35715,-54.82143 5,-11.07143 10.59699,-22.58294 13.09699,-25.26151 2.5,-2.67857 -2.76152,-9.44263 -1.51152,-16.40691"
       id="path4247"
       inkscape:connector-curvature="0"
       sodipodi:nodetypes="cscssscsssc" />
    <path
       style="fill:none;fill-rule:evenodd;stroke:#223350;stroke-width:1px;stroke-linecap:round;stroke-linejoin:round;stroke-opacity:1"
       d="m 529.00889,267.181 c 0.26785,0.35715 4.74112,9.10977 37.3304,18.3062 32.58929,9.19643 57.86342,10.41294 63.92433,8.89771"
       id="path4249"
       inkscape:connector-curvature="0"
       sodipodi:nodetypes="csc" />
    <ellipse
       style="opacity:1;fill:#000000;fill-opacity:1;stroke:none;stroke-width:8;stroke-linecap:round;stroke-linejoin:round;stroke-miterlimit:4;stroke-dasharray:none;stroke-dashoffset:0;stroke-opacity:1"
       id="path4251"
       cx="474.77313"
       cy="233.5034"
       rx="6.6587205"
       ry="6.8185301" />
    <path
       style="fill:none;fill-rule:evenodd;stroke:#223350;stroke-width:1px;stroke-linecap:round;stroke-linejoin:round;stroke-opacity:1"
       d="m 447.14286,229.68363 c 0,0 -6.25,-8.39286 -8.75,-9.73214 0,0 1.42857,-1.51786 1.96429,-3.57143"
       id="path4255"
       inkscape:connector-curvature="0" />
    <path
       style="fill:none;fill-rule:evenodd;stroke:#223350;stroke-width:1px;stroke-linecap:round;stroke-linejoin:round;stroke-opacity:1"
       d="m 434.46429,219.8622 c 0,0 -5.625,-7.85714 -7.58928,-9.91071 0,0 1.875,-2.85714 2.41071,-4.91072"
       id="path4259"
       inkscape:connector-curvature="0" />
    <path
       style="fill:none;fill-rule:evenodd;stroke:#223350;stroke-width:1px;stroke-linecap:round;stroke-linejoin:round;stroke-opacity:1"
       d="m 452.73919,255.91617 c 0,0 -7.44988,23.73858 -6.18719,49.75001"
       id="path4261"
       inkscape:connector-curvature="0"
       sodipodi:nodetypes="cc" />
    <path
       style="fill:none;fill-rule:evenodd;stroke:#223350;stroke-width:1px;stroke-linecap:round;stroke-linejoin:round;stroke-opacity:1"
       d="m 476.98285,276.49803 c 0,0 -7.70241,16.28871 -8.46003,21.59201 -0.75761,5.3033 -3.40926,14.14214 -2.27284,18.94036"
       id="path4263"
       inkscape:connector-curvature="0"
       sodipodi:nodetypes="csc" />
    <path
       style="fill:none;fill-rule:evenodd;stroke:#223350;stroke-width:1px;stroke-linecap:round;stroke-linejoin:round;stroke-opacity:1"
       d="m 412.96443,368.54818 c 0,0 -0.69448,-5.68211 -0.31567,-6.43972 0.37881,-0.75762 0.88388,-2.46224 7.32361,-4.29315 6.43972,-1.8309 12.31123,-5.4927 12.56377,-6.25031"
       id="path4269"
       inkscape:connector-curvature="0"
       sodipodi:nodetypes="cssc" />
    <path
       style="fill:none;fill-rule:evenodd;stroke:#223350;stroke-width:1px;stroke-linecap:round;stroke-linejoin:round;stroke-opacity:1"
       d="m 468.36992,348.5935 c 2.05187,-1.76777 27.17448,-26.63861 32.09898,-33.70967"
       id="path4273"
       inkscape:connector-curvature="0"
       sodipodi:nodetypes="cc" />
  </g>
  <g
     inkscape:groupmode="layer"
     id="layer4"
     inkscape:label="axon drawing"
     style="display:inline">
    <g
       id="g4766">
      <path
         sodipodi:nodetypes="cssscssscssssscsssssssssssssssssssssssccsssssscscsssssssssssssscssszssssssssscsssssssscssssssscssssssscsssssssssssccssssssssssssc"
         inkscape:connector-curvature="0"
         id="path4275"
         d="m 263.03572,310.04078 c 0,0 26.78571,-4.28572 40,3.92856 13.21429,8.21429 19.82268,19.31187 28.03571,25 8.05552,5.57904 19.41199,10.69635 20.89286,14.46429 2.10847,5.36482 6.60714,19.28571 5.71429,23.39286 0,0 -2.35598,1.19187 -1.59836,3.40158 0.75761,2.20971 2.20971,3.8512 5.36644,2.90419 4.92466,-1.47739 3.8512,-5.42957 1.95716,-6.69227 -1.46335,-0.97556 -2.3044,-1.89403 -2.3044,-1.89403 0,0 -2.87263,-16.35184 -4.26159,-19.44543 -0.58514,-1.30324 -3.03046,-6.7554 3.78807,-5.74525 6.81853,1.01016 13.7002,-1.01015 15.08916,-0.82074 1.38896,0.1894 3.8512,1.76776 5.24016,1.64149 1.38896,-0.12627 4.67196,-2.20971 2.65165,-5.1139 -2.0203,-2.90418 -4.32483,-3.74757 -7.3236,-0.63134 -7.87604,3.79753 -15.52095,0.81683 -22.9918,-0.30484 -15.37957,-2.30908 -29.2199,-18.55292 -30.24144,-22.34963 -0.83973,-3.121 2.9742,-4.06093 8.89334,-6.42623 5.71016,-2.28181 11.35565,-6.92473 14.79293,-9.05256 2.65166,-1.6415 9.05686,-3.00593 13.57393,-1.07329 1.68355,0.72031 0.69448,2.65165 2.84106,3.0936 2.14657,0.44194 4.67195,-1.38897 3.91434,-3.40927 -0.75762,-2.02031 -4.41942,-3.40926 -5.24017,-2.33598 -0.82075,1.07329 -6.73262,-2.31497 -7.26047,-2.90419 -0.94519,-1.05508 1.8309,-3.91434 5.24016,-4.29314 3.40927,-0.37881 8.33376,-1.26269 9.21764,-0.75762 0.88389,0.50508 1.95714,1.95717 3.78808,2.08344 1.8309,0.12627 2.27194,-3.65554 0.75761,-4.54569 -3.75082,-2.20481 -4.15801,-1.10949 -11.74303,0.25255 -6.37674,1.14507 -7.19733,0.50507 -14.01586,7.95495 -6.81853,7.44987 -19.1929,11.86929 -27.52665,12.87944 -8.33376,1.01015 -22.79644,-10.00627 -23.74147,-13.92074 -0.49363,-2.04472 5.86344,-27.08756 21.69449,-39.35849 16.87666,-13.08142 39.06249,-4.49488 46.27801,2.98449 12.46326,12.919 15.95269,15.4244 21.20032,22.80747 1.37245,1.93095 2.8125,3.30357 2.45536,5.26785 -0.35715,1.96429 0.8482,4.28572 3.70535,3.92858 2.85715,-0.35714 4.73215,-2.23214 3.12501,-4.73214 -1.60714,-2.5 -3.39286,-1.42858 -3.75,-2.50001 -0.35715,-1.07142 -7.80112,-12.21574 -10.39041,-13.73359 3.6408,3.20781 17.38574,8.66466 20.92612,12.75145 1.37975,1.59269 2.14286,2.67857 4.10715,1.96429 1.96428,-0.71429 2.05357,-4.28572 0.44641,-5.13394 -2.74673,-1.44966 -2.72322,-0.31249 -4.55357,-1.24999 -1.68953,-0.86536 -9.19642,-5.13393 -12.14285,-6.65179 -2.94643,-1.51786 -10.01103,-7.15386 -20.44644,-15.62499 -3.23513,-2.62618 -12.00892,-8.12501 -14.41964,-10.98215 0,0 4.33036,-1.29464 19.41964,4.15179 15.41255,5.56311 35.45744,6.02143 38.83929,5.35714 3.85837,-0.86125 4.80075,-0.9974 6.74107,-0.31251 2.55382,0.90145 4.375,-1.91964 2.5,-3.52678 -1.875,-1.60714 -3.47696,-0.68045 -4.28571,0.0446 -1.29465,1.16072 -7.94643,1.02679 -10.53572,0.75893 -2.58928,-0.26786 -8.66071,-1.33928 -8.30357,-2.41071 0.35715,-1.07143 2.0546,-0.78021 5.40179,-2.90178 2.90095,-1.83873 6.91965,-4.73214 9.73215,-6.60715 2.68371,-1.78914 4.86187,-4.18938 6.07142,-4.46428 0.98213,-0.22322 2.72321,-0.5357 2.72321,-2.05357 0,-1.51786 -1.69642,-3.83929 -3.57142,-3.03572 -1.875,0.80357 -1.82911,2.29018 -2.23215,2.76786 -1.20536,1.42857 -4.64286,3.92856 -7.58929,5.71428 -1.40381,0.85079 -11.92675,8.33828 -23.03571,6.69643 -7.34755,-1.08594 -17.54465,-4.55357 -25.40179,-6.25 -5.8941,-1.2726 -20,-1.51785 -23.73711,0.87167 0,0 9.28812,-9.84631 12.34131,-14.5498 3.42567,-5.2773 12.64608,-9.81017 14.33712,-10.92282 1.75244,-1.15305 4.17355,-2.33687 5.32759,-2.05226 1.8032,0.44471 4.04892,-0.42525 3.92966,-2.77026 -0.11926,-2.34501 -2.76836,-2.46787 -3.85175,-1.93736 -2.03674,0.99734 -1.56269,1.65247 -2.34178,2.2422 -2.6279,1.9892 -13.08603,4.79954 -15.63438,6.81722 -3.24279,2.56751 2.61466,-11.0504 4.12989,-12.31309 1.51523,-1.26269 4.32052,-2.36468 4.09794,-4.24982 -0.17091,-1.44761 -2.22185,-4.68465 -5.87096,-2.25358 -2.20928,1.47183 -2.10337,4.17552 -1.92708,5.3556 0.28997,1.94108 -2.47308,4.62337 -4.24085,9.29532 -1.76776,4.67196 -4.92449,15.65737 -13.13198,20.45559 -8.20749,4.79823 -25.00259,14.5669 -31.94739,23.1532 0,0 -2.90287,-0.2985 -2.27153,-5.34926 0.63135,-5.05076 9.18727,-28.38004 13.8896,-35.22907 5.80838,-8.46002 9.01632,-14.64454 24.22199,-20.73745 9.17727,-3.67733 14.77851,-5.95762 18.18778,-5.57882 3.40926,0.37881 5.61209,1.28305 6.87478,0.39916 1.26269,-0.88388 1.49448,-5.7895 -0.36743,-6.34649 -3.9965,-1.19556 -4.31893,2.55464 -7.02774,2.28816 -3.08609,-0.30359 -8.55435,0.0497 -14.36272,2.95386 -5.80838,2.90419 -4.04062,-0.44194 -4.04062,-0.44194 0,0 4.27703,-5.59992 3.1883,-14.77348 -1.17237,-9.87832 -2.68322,-12.94258 -2.30441,-14.58408 0.3788,-1.6415 1.13642,-2.90419 -0.63135,-4.29315 -1.76776,-1.38896 -5.53466,0.71013 -4.98762,2.90419 0.47372,1.90003 1.83746,1.76075 2.20971,2.96733 1.83089,5.93464 3.34613,17.86707 -1.26269,23.67545 -4.81073,6.06284 -15.13855,14.14675 -20.70418,19.38679 -3.51256,3.30706 -7.45382,12.05421 -7.45382,12.05421 0,0 -2.43322,-11.03724 -5.80838,-16.16245 -0.85232,-1.29425 -2.71479,-3.63023 -1.83091,-4.89292 0.88388,-1.26269 -0.24543,-4.11715 -2.71478,-3.81964 -2.62009,0.31567 -3.9159,3.36079 -2.49382,4.38785 1.70464,1.23112 7.79712,12.5322 7.54458,18.46685 -0.25254,5.93464 -0.82075,16.22557 -2.96733,20.39245 -2.14657,4.16688 -4.35627,12.43751 -3.59866,14.079 0.75761,1.6415 -12.56021,-9.91359 -15.5311,-14.39467 -6.05589,-7.08104 -8.70298,-17.6457 -9.47017,-19.88738 -0.57571,-1.68219 0.94701,-3.97747 -2.46226,-4.35628 -3.40926,-0.37881 -4.75975,3.84516 -2.96732,4.16688 2.46226,0.44194 5.88926,13.32598 8.96511,19.19289 2.00044,3.81567 4.73509,6.81854 2.20971,6.06092 -2.52538,-0.75761 -8.7757,-2.27284 -14.58408,-2.0203 -5.80838,0.25253 -16.54125,-5.80838 -16.92006,-7.82869 -0.3788,-2.0203 -4.54568,-4.0406 -5.80837,-2.27283 -1.2627,1.76776 -0.67889,5.10697 0.44193,5.55583 1.39315,0.5579 3.79944,0.78319 5.36645,2.02031 2.39911,1.89403 11.86928,5.24016 10.73286,6.62912 -1.13642,1.38896 -3.53553,2.08344 -5.68211,2.20971 -5.97014,0.56741 -23.01309,-5.87322 -23.99112,-10.16466 -0.12627,-1.76776 -4.23001,-5.3033 -5.80837,-4.79823 -1.73445,0.55501 -3.61294,4.04789 -2.08344,5.1139 2.08344,1.45209 4.7389,1.51856 5.61897,2.9042 2.96732,4.67195 13.25826,9.34391 17.04633,10.10152 3.78807,0.75761 11.61675,1.64149 12.24809,1.64149 0.63135,0 -2.77901,2.00739 -4.97154,5.11181 -2.05645,2.91175 -3.7716,7.66395 -5.78299,8.77911 -1.46763,0.81369 -2.58403,2.21156 -0.44643,3.28168 2.79325,1.39834 4.29414,-0.15804 4.06228,-1.20776 -0.56748,-2.5692 2.56462,-6.1801 4.14521,-8.117 11.25129,-13.78762 19.53821,-11.56702 25.21683,-11.88845 6.69226,-0.37881 24.14575,12.79229 22.34963,27.65293 -2.99648,24.79214 -31.80586,26.73273 -31.80586,26.73273"
         style="opacity:0.95999995;fill:none;fill-rule:evenodd;stroke:#af931f;stroke-width:1px;stroke-linecap:round;stroke-linejoin:round;stroke-opacity:1" />
      <path
         sodipodi:nodetypes="sssss"
         inkscape:connector-curvature="0"
         id="path4299"
         d="m 201.0688,298.14719 c -5.02666,7.53592 -2.23604,20.61863 4.55008,21.65133 10.39925,1.58254 50.25758,3.02202 54.03373,-4.99946 3.22326,-6.84698 3.28937,-16.9601 -2.81645,-19.92603 -18.24388,-8.86203 -50.54435,-4.55611 -55.76736,3.27416 z"
         style="display:inline;opacity:1;fill:none;fill-rule:evenodd;stroke:#000000;stroke-width:1px;stroke-linecap:round;stroke-linejoin:round;stroke-opacity:1" />
      <path
         sodipodi:nodetypes="csssc"
         inkscape:connector-curvature="0"
         id="path4301"
         d="m 152.69608,327.17357 c 6.25,-1.69643 14.83937,-3.81391 25.16107,-3.02565 15.58879,1.1905 20.625,-8.125 20.35714,-12.58929 -0.26786,-4.46429 2.66801,-9.62047 -12.5,-16.78571 -8.23813,-3.89162 -23.43445,-1.49991 -34.05945,2.51794"
         style="display:inline;opacity:1;fill:none;fill-rule:evenodd;stroke:#000000;stroke-width:1px;stroke-linecap:round;stroke-linejoin:round;stroke-opacity:1" />
    </g>
  </g>
</svg>
